# xmcd CD database file
#
# Track frame offsets:
#	150
#	17181
#	36379
#	51840
#	71212
#	97466
#	122740
#	137154
#	154226
#	179334
#	197368
#	218397
#	236573
#
# Disc length: 3438 seconds
#
# Revision: 0
# Processed by: cddbd v1.4PL0 Copyright (c) Steve Scherf et al.
# Submitted via: CDex 1.40Release
#
DISCID=c00d6c0d
DTITLE=Thomas Scheytt - The Blues In My Soul
DYEAR=1996
DGENRE=Blues
TTITLE0=Wednesday Evening
TTITLE1=Mecca Flat Blues
TTITLE2=Merry-Go-Round rag
TTITLE3=Fifty Dollar Boogie
TTITLE4=Suitcase Blues
TTITLE5=The Blues In My Soul
TTITLE6=Something About Her
TTITLE7=Crescent City Blues
TTITLE8=Blues For H.
TTITLE9=The Fives
TTITLE10=Keep On Gwine
TTITLE11=Echoes Of Spring
TTITLE12=Just One More
EXTD=YEAR: 1996 ID3G: 0
EXTT0=
EXTT1=
EXTT2=
EXTT3=
EXTT4=
EXTT5=
EXTT6=
EXTT7=
EXTT8=
EXTT9=
EXTT10=
EXTT11=
EXTT12=
PLAYORDER=
